<svg width="13" height="14" viewBox="0 0 13 14" fill="none" xmlns="http://www.w3.org/2000/svg">
<g clip-path="url(#clip0_2502_102)">
<path d="M1.38713 7.61853L5.68766 2.98708L5.68766 13.125C5.68766 13.608 6.05166 14 6.50015 14C6.94865 14 7.31265 13.608 7.31265 13.125C7.31265 12.642 7.31265 2.98708 7.31265 2.98708L11.6132 7.61853C11.9309 7.96066 12.4452 7.96066 12.762 7.61853C13.0789 7.27639 13.0797 6.72251 12.762 6.38126L7.07458 0.25616C6.99984 0.175659 6.91046 0.110909 6.81134 0.0662832C6.61228 -0.0220938 6.38803 -0.0220938 6.18897 0.0662832C6.09309 0.109159 6.00372 0.172158 5.92572 0.25616L0.238264 6.38126C-0.0794213 6.72339 -0.0794213 7.27727 0.238264 7.61853C0.555949 7.95978 1.07026 7.96066 1.38713 7.61853Z" fill="black"/>
</g>
<defs>
<clipPath id="clip0_2502_102">
<rect y="14" width="14" height="13" rx="6.5" transform="rotate(-90 0 14)" fill="white"/>
</clipPath>
</defs>
</svg>
