<svg width="16" height="14" viewBox="0 0 16 14" fill="none" xmlns="http://www.w3.org/2000/svg">
<g clip-path="url(#clip0_2502_107)">
<path d="M13.5148 6.38147L8.69524 11.0129V0.875014C8.69524 0.392006 8.28731 0 7.78468 0C7.28206 0 6.87413 0.392006 6.87413 0.875014C6.87413 1.35802 6.87413 11.0129 6.87413 11.0129L2.05457 6.38147C1.69855 6.03934 1.12216 6.03934 0.767049 6.38147C0.411933 6.72361 0.411022 7.27749 0.767049 7.61874L7.14092 13.7438C7.22469 13.8243 7.32485 13.8891 7.43594 13.9337C7.65903 14.0221 7.91034 14.0221 8.13342 13.9337C8.24087 13.8908 8.34103 13.8278 8.42844 13.7438L14.8023 7.61874C15.1583 7.27661 15.1583 6.72273 14.8023 6.38147C14.4463 6.04022 13.8699 6.03934 13.5148 6.38147Z" fill="black"/>
</g>
<defs>
<clipPath id="clip0_2502_107">
<rect x="15.0693" width="14" height="14.569" rx="7" transform="rotate(90 15.0693 0)" fill="white"/>
</clipPath>
</defs>
</svg>
