<svg width="19" height="18" viewBox="0 0 19 18" fill="none" xmlns="http://www.w3.org/2000/svg">
<path d="M14.5183 15.75V5.23804H6.2915V15.75H14.5183ZM14.5183 3.76204C14.9168 3.76204 15.2683 3.90854 15.5728 4.20154C15.8773 4.49454 16.0295 4.84029 16.0295 5.23879V15.7508C16.0295 16.1493 15.8773 16.5008 15.5728 16.8053C15.2683 17.1098 14.9168 17.262 14.5183 17.262H6.2915C5.893 17.262 5.5415 17.1098 5.237 16.8053C4.9325 16.5008 4.78025 16.1493 4.78025 15.7508V5.23879C4.78025 4.84029 4.9325 4.49454 5.237 4.20154C5.5415 3.90854 5.893 3.76204 6.2915 3.76204H14.5183ZM12.2683 0.738037V2.25004H3.26825V12.762H1.7915V2.25004C1.7915 1.85154 1.938 1.50004 2.231 1.19554C2.524 0.891037 2.86975 0.738787 3.26825 0.738787L12.2683 0.738037Z" fill="white"/>
</svg>
