<svg width="19" height="15" viewBox="0 0 19 15" fill="none" xmlns="http://www.w3.org/2000/svg">
<g clip-path="url(#clip0_2502_48)">
<path d="M15.6471 0H3.35294C1.50435 0 0 1.55308 0 3.46154V11.5385C0 13.4469 1.50435 15 3.35294 15H15.6471C17.4956 15 19 13.4469 19 11.5385V3.46154C19 1.55308 17.4956 0 15.6471 0ZM16.7647 11.5385C16.7647 12.1754 16.264 12.6923 15.6471 12.6923H3.35294C2.736 12.6923 2.23529 12.1754 2.23529 11.5385V6.92308H16.7647V11.5385ZM16.7647 4.61538H2.23529V3.46154C2.23529 2.82462 2.736 2.30769 3.35294 2.30769H15.6471C16.264 2.30769 16.7647 2.82462 16.7647 3.46154V4.61538Z" fill="#959595"/>
<path d="M12.2942 10.3846H14.5295C14.8379 10.3846 15.0883 10.1261 15.0883 9.80764C15.0883 9.48917 14.8379 9.23071 14.5295 9.23071H12.2942C11.9857 9.23071 11.7354 9.48917 11.7354 9.80764C11.7354 10.1261 11.9857 10.3846 12.2942 10.3846Z" fill="#959595"/>
</g>
<defs>
<clipPath id="clip0_2502_48">
<rect width="19" height="15" fill="white"/>
</clipPath>
</defs>
</svg>
