<svg width="17" height="17" viewBox="0 0 17 17" fill="none" xmlns="http://www.w3.org/2000/svg">
<path d="M2.55 8.5H14.45C14.6846 8.5 14.8963 8.58577 15.051 8.72641C15.2057 8.86705 15.3 9.05945 15.3 9.27273V14.6818C15.3 14.8951 15.2057 15.0875 15.051 15.2281C14.8963 15.3688 14.6846 15.4545 14.45 15.4545H2.55C2.3154 15.4545 2.10375 15.3688 1.94905 15.2281C1.79435 15.0875 1.7 14.8951 1.7 14.6818V9.27273C1.7 9.05945 1.79435 8.86705 1.94905 8.72641C2.10375 8.58577 2.3154 8.5 2.55 8.5ZM13.6 6.95455V4.63636C13.6 3.35595 13.028 2.19609 12.1066 1.35768C11.1852 0.519273 9.90845 0 8.5 0C7.09155 0 5.8157 0.520045 4.89345 1.35768C3.9712 2.19532 3.4 3.35595 3.4 4.63636V6.95455H2.55C1.8462 6.95455 1.207 7.21495 0.74715 7.63377C0.2873 8.05259 0 8.63291 0 9.27273V14.6818C0 15.3216 0.28645 15.9027 0.74715 16.3208C1.20785 16.7388 1.8462 17 2.55 17H14.45C15.1538 17 15.793 16.7396 16.2529 16.3208C16.7127 15.902 17 15.3216 17 14.6818V9.27273C17 8.63291 16.7136 8.05182 16.2529 7.63377C15.7922 7.21573 15.1538 6.95455 14.45 6.95455H13.6ZM5.1 6.95455V4.63636C5.1 3.7825 5.47995 3.01132 6.0962 2.45109C6.71245 1.89086 7.56075 1.54545 8.5 1.54545C9.43925 1.54545 10.2875 1.89086 10.9038 2.45109C11.5201 3.01132 11.9 3.7825 11.9 4.63636V6.95455H5.1Z" fill="#959595"/>
</svg>
