<svg width="17" height="18" viewBox="0 0 17 18" fill="none" xmlns="http://www.w3.org/2000/svg">
<path d="M6.67183 7.23724L6.67233 7.23736C6.73737 7.25247 6.80508 7.23329 6.85643 7.18586L6.67183 7.23724ZM6.67183 7.23724C6.14273 7.1201 5.68262 7.05156 5.41082 7.05156C2.69 7.05156 0.481097 9.39475 0.481097 12.2692C0.481097 15.1437 2.69 17.4875 5.41082 17.4875C8.3732 17.4875 10.1408 15.0284 10.1408 12.6562C10.1408 12.2038 10.0784 11.7638 9.98641 11.3936C9.89472 11.0246 9.77266 10.7207 9.65097 10.5429C9.61335 10.4878 9.60039 10.4172 9.61588 10.3506C9.63138 10.284 9.67367 10.2285 9.72959 10.1991L9.72973 10.199L12.2386 8.87037L12.2652 8.85629V8.82619V6.46875C12.2652 6.33837 12.3645 6.2375 12.4808 6.2375H14.3396H14.3896V6.1875V3.65625C14.3896 3.52587 14.4889 3.425 14.6052 3.425H16.464H16.514V3.375V0.826312C16.514 0.655756 16.3828 0.5125 16.2149 0.5125L14.1569 0.5125C14.0837 0.5125 14.0128 0.541295 13.9578 0.592174L13.9577 0.592234L6.85651 7.18579L6.67183 7.23724ZM7.65682 7.81099L7.65686 7.81095L13.6285 2.26639L13.9151 2.61227L7.9394 8.16118C7.93938 8.16119 7.93936 8.16121 7.93934 8.16123C7.89821 8.19926 7.84772 8.21762 7.7981 8.21762C7.73925 8.21762 7.68006 8.19171 7.63693 8.13957L7.63687 8.13949C7.55645 8.04269 7.56606 7.8951 7.65682 7.81099ZM10.1747 10.4791L10.1327 10.5013L10.1528 10.5444C10.402 11.0783 10.5719 11.905 10.5719 12.6562C10.5719 15.2612 8.6398 17.95 5.41082 17.95C2.4574 17.95 0.05 15.4039 0.05 12.2692C0.05 9.13456 2.45739 6.58906 5.41028 6.58906C5.76717 6.58906 6.2835 6.683 6.62833 6.75616L6.65372 6.76155L6.67273 6.74389L13.6761 0.241575C13.6762 0.241528 13.6762 0.241481 13.6763 0.241434C13.8113 0.117465 13.982 0.05 14.1569 0.05L16.2149 0.05C16.6148 0.05 16.9451 0.395557 16.9451 0.826312V3.375C16.9451 3.4317 16.9465 3.47783 16.9476 3.5144C16.9478 3.52374 16.9481 3.53245 16.9483 3.54056L16.9483 3.54113C16.9527 3.65675 16.9545 3.76166 16.8657 3.84545L16.8656 3.84558C16.7807 3.92628 16.684 3.91179 16.6199 3.90111L16.6195 3.90106L16.6164 3.90056C16.584 3.8954 16.5344 3.8875 16.464 3.8875H14.8707H14.8207V3.9375V6.1868C14.8148 6.3928 14.7853 6.51018 14.7253 6.58064C14.6671 6.6491 14.5706 6.68413 14.3973 6.69667C14.3958 6.69671 14.3942 6.69678 14.3925 6.69687C14.3902 6.69698 14.3878 6.69711 14.3857 6.69724L14.3665 6.69841L14.3477 6.69956C14.3415 6.69992 14.3392 6.7 14.3396 6.7H12.7463H12.6963V6.75V9C12.6963 9.08881 12.6488 9.1686 12.5763 9.20728C12.5763 9.20729 12.5763 9.2073 12.5762 9.20731L10.1747 10.4791ZM6.32316 13.2188C6.32316 14.2795 5.50906 15.1375 4.51432 15.1375C3.51959 15.1375 2.70548 14.2795 2.70548 13.2188C2.70548 12.158 3.51959 11.3 4.51432 11.3C5.50906 11.3 6.32316 12.158 6.32316 13.2188ZM5.89207 13.2188C5.89207 12.4188 5.27646 11.7625 4.51432 11.7625C3.75219 11.7625 3.13658 12.4188 3.13658 13.2188C3.13658 14.0187 3.75219 14.675 4.51432 14.675C5.27646 14.675 5.89207 14.0187 5.89207 13.2188Z" fill="#959595" stroke="black" stroke-width="0.1"/>
</svg>
