<svg width="10" height="10" viewBox="0 0 10 10" fill="none" xmlns="http://www.w3.org/2000/svg">
<g clip-path="url(#clip0_2502_95)">
<path d="M4.5582 1.06702L7.86637 4.37512H0.62501C0.280004 4.37512 0 4.65512 0 5.00012C0 5.34511 0.280004 5.62511 0.62501 5.62511C0.970015 5.62511 7.86637 5.62511 7.86637 5.62511L4.5582 8.93321C4.31382 9.17758 4.31382 9.57321 4.5582 9.81695C4.80258 10.0607 5.19821 10.0613 5.44196 9.81695L9.81703 5.44199C9.87453 5.38449 9.92078 5.31574 9.95266 5.23949C10.0158 5.08637 10.0158 4.91387 9.95266 4.76074C9.92203 4.68699 9.87703 4.61825 9.81703 4.55825L5.44196 0.18328C5.19758 -0.0610933 4.80195 -0.0610933 4.5582 0.18328C4.31444 0.427653 4.31382 0.823275 4.5582 1.06702Z" fill="#6E468F"/>
</g>
<defs>
<clipPath id="clip0_2502_95">
<rect width="10" height="10" fill="white"/>
</clipPath>
</defs>
</svg>
