<svg width="33" height="23" viewBox="0 0 33 23" fill="none" xmlns="http://www.w3.org/2000/svg">
<path d="M19.9011 5.47241H13.0806V17.5275H19.9011V5.47241Z" fill="#FF5F00"/>
<path d="M13.5137 11.4999C13.5126 10.3389 13.7801 9.19291 14.2959 8.14863C14.8117 7.10435 15.5623 6.18917 16.4909 5.47239C15.341 4.5834 13.9599 4.03056 12.5057 3.87704C11.0514 3.72352 9.58257 3.97552 8.26704 4.60424C6.95151 5.23296 5.84237 6.21303 5.06639 7.43243C4.29041 8.65183 3.87891 10.0614 3.87891 11.4999C3.87891 12.9385 4.29041 14.348 5.06639 15.5674C5.84237 16.7868 6.95151 17.7669 8.26704 18.3956C9.58257 19.0243 11.0514 19.2763 12.5057 19.1228C13.9599 18.9693 15.341 18.4164 16.4909 17.5274C15.5623 16.8106 14.8117 15.8955 14.2959 14.8512C13.7801 13.8069 13.5126 12.6609 13.5137 11.4999Z" fill="#EB001B"/>
<path d="M29.1023 11.4999C29.1023 12.9384 28.6909 14.348 27.915 15.5674C27.139 16.7868 26.0299 17.7668 24.7144 18.3956C23.3989 19.0243 21.9301 19.2763 20.4758 19.1228C19.0216 18.9693 17.6406 18.4164 16.4907 17.5274C17.4185 16.8099 18.1685 15.8946 18.6842 14.8505C19.1999 13.8064 19.4679 12.6607 19.4679 11.4999C19.4679 10.3391 19.1999 9.19345 18.6842 8.14933C18.1685 7.10522 17.4185 6.1899 16.4907 5.47238C17.6406 4.5834 19.0216 4.03055 20.4758 3.87704C21.9301 3.72352 23.3989 3.97553 24.7144 4.60425C26.0299 5.23298 27.139 6.21305 27.915 7.43245C28.6909 8.65185 29.1023 10.0614 29.1023 11.4999Z" fill="#F79E1B"/>
<path d="M28.3587 16.2507V16.0039H28.4598V15.9536H28.2021V16.0039H28.3034V16.2507H28.3587ZM28.8589 16.2507V15.9531H28.78L28.6891 16.1578L28.5982 15.9531H28.5192V16.2507H28.575V16.0262L28.6602 16.2198H28.718L28.8032 16.0257V16.2507H28.8589Z" fill="#F79E1B"/>
</svg>
