<svg width="19" height="15" viewBox="0 0 19 15" fill="none" xmlns="http://www.w3.org/2000/svg">
<g clip-path="url(#clip0_2502_46)">
<path d="M8.0625 2.90914V2.5455C8.0625 1.9455 7.57734 1.45459 6.98438 1.45459H3.39062C2.79766 1.45459 2.3125 1.9455 2.3125 2.5455V2.90914H-2V5.81823H2.3125V6.18186C2.3125 6.78186 2.79766 7.27277 3.39062 7.27277H6.98438C7.57734 7.27277 8.0625 6.78186 8.0625 6.18186V5.81823H21V2.90914H8.0625ZM3.75 5.81823V2.90914H6.625V5.81823H3.75ZM16.6875 9.81823C16.6875 9.21823 16.2023 8.72732 15.6094 8.72732H12.0156C11.4227 8.72732 10.9375 9.21823 10.9375 9.81823V10.1819H-2V13.091H10.9375V13.4546C10.9375 14.0546 11.4227 14.5455 12.0156 14.5455H15.6094C16.2023 14.5455 16.6875 14.0546 16.6875 13.4546V13.091H21V10.1819H16.6875V9.81823ZM12.375 13.091V10.1819H15.25V13.091H12.375ZM8.0625 17.091C8.0625 16.491 7.57734 16 6.98438 16H3.39062C2.79766 16 2.3125 16.491 2.3125 17.091V17.4546H-2V20.3637H2.3125V20.7273C2.3125 21.3273 2.79766 21.8182 3.39062 21.8182H6.98438C7.57734 21.8182 8.0625 21.3273 8.0625 20.7273V20.3637H21V17.4546H8.0625V17.091ZM3.75 20.3637V17.4546H6.625V20.3637H3.75Z" fill="#959595"/>
</g>
<defs>
<clipPath id="clip0_2502_46">
<rect width="23" height="16" fill="white" transform="translate(-2)"/>
</clipPath>
</defs>
</svg>
